<?xml version="1.0" encoding="UTF-8" standalone="no"?>
<!-- Generator: Adobe Illustrator 21.0.0, SVG Export Plug-In . SVG Version: 6.00 Build 0)  -->

<svg
   xmlns:dc="http://purl.org/dc/elements/1.1/"
   xmlns:cc="http://creativecommons.org/ns#"
   xmlns:rdf="http://www.w3.org/1999/02/22-rdf-syntax-ns#"
   xmlns:svg="http://www.w3.org/2000/svg"
   xmlns="http://www.w3.org/2000/svg"
   xmlns:sodipodi="http://sodipodi.sourceforge.net/DTD/sodipodi-0.dtd"
   xmlns:inkscape="http://www.inkscape.org/namespaces/inkscape"
   version="1.1"
   id="National Cheng Kung University"
   x="0px"
   y="0px"
   viewBox="0 0 186.2 174.8"
   xml:space="preserve"
   sodipodi:docname="Roundel of National Cheng Kung University.svg"
   width="186.2"
   height="174.8"
   inkscape:version="0.92.3 (2405546, 2018-03-11)"><title
   id="title96">National Cheng Kung University</title><metadata
   id="metadata92"><rdf:RDF><cc:Work
       rdf:about=""><dc:format>image/svg+xml</dc:format><dc:type
         rdf:resource="http://purl.org/dc/dcmitype/StillImage" /><dc:title>National Cheng Kung University</dc:title></cc:Work></rdf:RDF></metadata><defs
   id="defs90" /><sodipodi:namedview
   pagecolor="#ffffff"
   bordercolor="#666666"
   borderopacity="1"
   objecttolerance="10"
   gridtolerance="10"
   guidetolerance="10"
   inkscape:pageopacity="0"
   inkscape:pageshadow="2"
   inkscape:window-width="640"
   inkscape:window-height="480"
   id="namedview88"
   showgrid="false"
   fit-margin-top="0"
   fit-margin-left="0"
   fit-margin-right="0"
   fit-margin-bottom="0"
   inkscape:zoom="0.28031832"
   inkscape:cx="-91.85"
   inkscape:cy="-79.050012"
   inkscape:window-x="264"
   inkscape:window-y="212"
   inkscape:window-maximized="0"
   inkscape:current-layer="National Cheng Kung University" />
<style
   type="text/css"
   id="style2">
	.Arched_x0020_Green{fill:url(#SVGID_1_);stroke:#FFFFFF;stroke-width:0.25;stroke-miterlimit:1;}
	.st0{fill:#B8282E;}
</style>
<linearGradient
   id="SVGID_1_"
   gradientUnits="userSpaceOnUse"
   x1="0"
   y1="841.88959"
   x2="0.70709997"
   y2="841.1825">
	<stop
   offset="0"
   style="stop-color:#1EAC4A"
   id="stop4" />
	<stop
   offset="0.9831"
   style="stop-color:#173519"
   id="stop6" />
</linearGradient>
<g
   id="g85"
   transform="translate(-687.1,-167.1)">
	<g
   id="g27">
		<g
   id="g17">
			<path
   class="st0"
   d="m 765.9,341.7 h -2.6 V 332 h -1.8 v -1.5 c 1.2,-0.1 2.1,-0.6 2.7,-1.5 h 1.7 z"
   id="path9"
   inkscape:connector-curvature="0"
   style="fill:#b8282e" />
			<path
   class="st0"
   d="m 779.5,334.9 c -0.1,2 -0.6,3.6 -1.4,4.8 -0.9,1.5 -2.3,2.2 -4.2,2.2 -0.5,0 -1.2,-0.1 -2.1,-0.3 v -2.2 c 0.9,0.2 1.6,0.3 2.1,0.3 0.8,0 1.5,-0.3 1.9,-0.9 0.4,-0.5 0.6,-1.2 0.7,-2.1 -0.2,0.3 -0.5,0.6 -1.1,0.8 -0.5,0.2 -0.9,0.3 -1.3,0.3 -1.4,0 -2.4,-0.4 -3.1,-1.2 -0.7,-0.8 -1.1,-1.8 -1.1,-3.2 0,-1.5 0.4,-2.6 1.2,-3.5 0.8,-0.9 2,-1.3 3.4,-1.3 1.6,0 2.8,0.4 3.6,1.3 0.7,0.8 1.1,2.1 1.2,3.7 0,0.2 0,0.4 0,0.6 0.2,0.4 0.2,0.6 0.2,0.7 z m -2.8,-1.6 c 0,-1.7 -0.6,-2.6 -1.9,-2.6 -1.3,0 -1.9,0.9 -1.9,2.6 0,1.8 0.6,2.6 1.9,2.6 0.7,0 1.2,-0.3 1.5,-0.9 0.2,-0.4 0.4,-1 0.4,-1.7 z"
   id="path11"
   inkscape:connector-curvature="0"
   style="fill:#b8282e" />
			<path
   class="st0"
   d="m 790,338 c 0,1.2 -0.4,2.2 -1.3,2.9 -0.8,0.7 -1.9,1 -3.1,1 -2.2,0 -3.7,-0.8 -4.5,-2.3 l 1.8,-1.1 c 0.2,0.5 0.5,0.8 1,1.1 0.4,0.2 1,0.4 1.5,0.4 0.6,0 1.1,-0.2 1.5,-0.6 0.3,-0.4 0.5,-0.9 0.5,-1.6 0,-0.6 -0.2,-1.1 -0.5,-1.4 -0.4,-0.3 -0.8,-0.5 -1.5,-0.5 H 784 v -1.8 h 1.4 c 1.2,0 1.8,-0.6 1.8,-1.7 0,-1.2 -0.5,-1.8 -1.5,-1.8 -0.8,0 -1.4,0.3 -1.7,1 h -2.3 c 0.2,-0.9 0.7,-1.7 1.4,-2.2 0.7,-0.5 1.6,-0.7 2.6,-0.7 1.2,0 2.1,0.3 2.9,0.8 0.8,0.6 1.3,1.4 1.3,2.6 0,0.7 -0.2,1.3 -0.5,1.8 -0.3,0.5 -0.8,0.9 -1.5,1 1.4,0.5 2.1,1.5 2.1,3.1 z"
   id="path13"
   inkscape:connector-curvature="0"
   style="fill:#b8282e" />
			<path
   class="st0"
   d="M 798.7,341.7 H 796 V 332 h -1.8 v -1.5 c 1.2,-0.1 2.1,-0.6 2.7,-1.5 h 1.7 v 12.7 z"
   id="path15"
   inkscape:connector-curvature="0"
   style="fill:#b8282e" />
		</g>
		<g
   id="g25">
			<g
   id="g21">
				<path
   class="st0"
   d="m 769.3,277.7 c -2.8,3.8 -7.8,4.5 -7.4,5.9 1,3.4 12.1,-1.5 15.7,-11.1 1,-2.8 2.1,-2.3 2.1,-2.3 0,0 3.3,0.3 -3.1,9.7 -1.4,2.1 -0.3,2.6 -0.3,2.6 0,0 1.4,0.9 3.4,-1.7 4.9,-6.3 3.9,-10.9 5.5,-10.2 3.1,1.3 -2.7,11.1 -0.7,12 1.5,0.6 2.9,-1.1 4.2,-5.6 1.2,-4.1 0.4,-6.5 1.9,-6.4 2.7,0.1 -0.2,12.3 5,12.2 2.1,0 -2.1,-11.8 1.2,-12.5 0,0 1.1,-0.3 1.5,2.9 0.4,3.2 1.4,5.8 1.4,5.8 0.6,1.5 2.7,5.8 4.9,4.7 1.8,-0.9 -3,-5.9 -2.5,-14.4 0,0 0.3,-3.9 -3.2,-4.3 -1.9,-0.2 -5.3,1.1 -4.8,-0.8 0.4,-1.5 6.9,-1.6 6.2,-4.9 -0.2,-1.3 -2.3,-0.4 -4,0.4 -1.8,0.8 -3.8,0.7 -4,-0.2 -0.2,-0.9 1.1,-1.3 2.6,-1.8 1.8,-0.6 3.4,-1.6 3.1,-3.2 -0.5,-2.2 -7.1,2 -7.1,-0.9 0.3,-1.4 5.2,-1.3 4.1,-4.1 -0.9,-2.3 -5.1,1.5 -12.8,-0.3 -3.8,-0.9 -2.9,2.3 -2.9,2.3 1.9,3 7.7,0.2 7,3 -0.6,2.3 -6.2,0.1 -6.6,2.7 -0.5,3.2 7.3,0.6 8.1,3.3 1.8,5.6 -1.1,5.8 -1.9,5.7 -2,-0.3 -0.3,-4.3 -2.9,-4.3 -2.2,0 -0.1,4.8 -3.2,4.4 -2.4,-0.3 0.4,-3.9 -2.7,-5 -1.9,-0.6 -3.8,-1.3 -4.1,-2.3 -0.4,-1.4 2.8,-2.3 2.6,-4.8 -0.2,-2.7 -11.1,-6.8 -12.8,-4 -1.5,2.4 2.1,3 2.1,3 3.3,0.8 6.7,1.9 3.7,4.3 -4.4,3.7 5.3,5 5.2,6.9 -0.1,1.5 -2.4,0.8 -2.6,0.8 -1.9,-0.7 -3.3,0.3 -3.4,1.2 -0.2,1.5 -1,1.3 -2.2,1.3 -0.9,0 -3.7,-1.2 -0.6,-2.5 1.3,-0.5 1.3,-1.6 1.1,-2 -0.8,-1.3 -6,-1.5 -6,-1.5 0,0 -1.9,-0.2 -2.4,1.1 -0.4,1.2 1.1,1.8 1.1,1.8 2.5,1.5 0.2,2.8 -0.2,3 -0.7,0.3 -1.5,0.6 -1.2,1.7 0.2,0.9 0.9,1.4 2.3,1.4 0,0 4.5,0.3 4.5,0.3 0,0 1.5,0.1 0.9,1.6 0,0 -0.9,3.1 -4.7,5.3 -1.8,1.1 -0.2,2.3 1.3,2 0,0 3.7,0.3 8.2,-8.3 1,-1.8 2.1,-1.2 2.1,-1.2 0,0 2.6,0.2 -2.7,7.3 z"
   id="path19"
   inkscape:connector-curvature="0"
   style="fill:#b8282e" />
			</g>
			<path
   class="st0"
   d="m 837.4,231.9 c -8,-8.9 -13.4,-8.6 -13.4,-8.6 -6.4,-0.8 -16.9,9.1 -21.5,13.9 l -0.7,-3.7 c 15.5,-13.6 13,-20.8 13,-20.8 -6.6,-0.3 -14.2,11.9 -17.9,18.5 -1,-0.4 -2.1,-0.7 -3.3,-0.9 15.6,-19.5 3.9,-28.6 3.9,-28.6 -3.7,-3.7 -16.9,-9.4 -17.4,-9.6 0,0 0,0 -0.1,0 0,0 0,0 -0.1,0 -0.5,0.2 -11.5,4.5 -17.4,9.6 0,0 -11.4,9 3.9,28.6 -1.2,0.2 -2.3,0.5 -3.3,0.9 -3.6,-6.6 -11.3,-18.8 -17.8,-18.5 0,0 -2.6,7.2 13,20.8 l -0.7,3.7 c -4.6,-4.8 -15.1,-14.7 -21.5,-13.9 0,0 -5.5,-0.4 -13.4,8.6 0,0 -4.2,5.3 -6.4,6.9 v 0 c 1,2.6 1.8,9.2 1.8,9.2 2.1,11.8 7,14.3 7,14.3 5.3,4.2 21.5,0.4 28.1,-1.3 l -0.9,4.9 c -26.1,1.1 -27.2,9.9 -27.2,9.9 0,0 6,6.1 26.4,-5.4 l -0.9,4.9 c -0.3,0.1 -11.5,4.2 -15.7,7.6 -6.2,5 -2.3,14.8 0.9,20.3 0,0 3.5,6.8 4.3,9.4 v 0 c 2.8,-0.1 9.3,1.3 9.3,1.3 11.8,1.9 15.7,-0.3 15.7,-0.3 8.9,-2.7 8,-14.8 7,-20.5 1.7,-0.2 3.4,-0.3 5,-0.3 -1.2,5.5 -2.9,17.1 2.9,22.7 v 0 0 0 c 5.8,-5.6 4.1,-17.2 2.8,-22.7 1.7,0 3.3,0.2 5,0.3 -1,5.7 -2,17.8 6.9,20.5 0,0 3.9,2.1 15.7,0.3 0,0 6.6,-1.4 9.3,-1.3 v 0 c 0.8,-2.6 4.3,-9.4 4.3,-9.4 3.1,-5.5 7.1,-15.1 0.9,-20.3 -4.2,-3.4 -15.4,-7.5 -15.7,-7.6 l -0.9,-4.9 c 20.4,11.5 26.4,5.4 26.4,5.4 0,0 -1.1,-8.7 -27.2,-9.9 l -0.9,-4.9 c 6.6,1.8 22.9,5.5 28.1,1.3 0,0 4.9,-2.6 7,-14.3 0,0 0.8,-6.7 1.8,-9.2 v 0 c -1.9,-1.6 -6.1,-6.9 -6.1,-6.9 z m -50.2,1.4 v 0.1 c -0.8,0.5 -1.7,0.9 -2.6,1.1 l -1.5,-19 c 0.8,-0.2 1.5,-0.5 2.2,-0.9 z M 780,210.1 c 4.4,0 5.1,2.5 5.1,2.5 -2.1,1.5 -5.1,1.4 -5.1,1.4 0,0 -2.9,0.1 -5.1,-1.4 0,0 0.8,-2.5 5.1,-2.5 z m 2.7,24.9 c -2.7,0.5 -5.3,0 -5.3,0 l 1.5,-19.1 c 0,0 0.9,0.1 2.3,0 z m -9.8,-1.7 1.9,-18.6 c 0.7,0.4 1.4,0.7 2.2,0.9 l -1.5,19 c -0.9,-0.3 -1.8,-0.7 -2.6,-1.1 z m -4,-0.1 c 0,0 3.5,4.4 11.2,4.4 7.6,0 11.2,-4.4 11.2,-4.4 3,0.2 5.5,1.3 6.9,2 -3.5,4 -10.4,6.5 -18.1,6.7 -7.7,-0.2 -14.6,-2.7 -18.1,-6.7 1.4,-0.7 3.9,-1.7 6.9,-2 z m 40.7,61.1 c -18.7,-6.5 -40.5,-6.9 -59.2,0 L 760.7,238 c 6.5,6.9 26.2,10.9 38.6,0 z"
   id="path23"
   inkscape:connector-curvature="0"
   style="fill:#b8282e" />
		</g>
	</g>
	<g
   id="g83">
		<path
   class="st0"
   d="m 721.2,332 0.4,-0.5 c 0.3,0.1 0.4,0.1 0.6,0.1 0.1,0 0.2,0 0.3,0 0.1,0 0.2,-0.1 0.4,-0.3 0.1,-0.1 0.3,-0.4 0.6,-0.7 l 6.2,-8.5 1.9,1.4 -0.8,8.4 c -0.1,1.1 -0.2,2 -0.3,2.6 h 0.1 c 0.7,-1.1 1.5,-2.3 2.4,-3.5 l 1.8,-2.5 c 0.3,-0.4 0.5,-0.7 0.5,-0.8 0.1,-0.2 0.1,-0.4 0.1,-0.5 0,-0.2 -0.2,-0.4 -0.4,-0.6 l 0.4,-0.5 2.9,2.1 -0.4,0.5 c -0.2,-0.1 -0.4,-0.1 -0.6,-0.2 -0.2,0 -0.3,0 -0.4,0.1 -0.1,0.1 -0.3,0.2 -0.4,0.3 -0.1,0.1 -0.3,0.3 -0.5,0.6 l -4.8,6.6 c -0.3,0.4 -0.5,0.7 -0.5,0.8 -0.1,0.2 -0.1,0.3 -0.1,0.5 0,0.2 0.2,0.4 0.4,0.7 l -0.4,0.5 -3.1,-2.2 0.7,-6.7 c 0,-0.4 0.1,-1 0.2,-1.7 0.1,-0.7 0.2,-1.4 0.3,-2 l -0.1,-0.1 c -0.8,1.3 -1.8,2.6 -2.8,4.1 l -1,1.4 c -0.2,0.3 -0.4,0.6 -0.5,0.7 -0.1,0.2 -0.1,0.3 -0.1,0.4 0,0.1 0,0.2 0.1,0.3 0.1,0.1 0.2,0.3 0.3,0.5 l -0.4,0.5 z"
   id="path29"
   inkscape:connector-curvature="0"
   style="fill:#b8282e" />
		<path
   class="st0"
   d="m 718.1,316.5 2.8,2.9 0.9,-0.4 c 0.2,-0.1 0.5,-0.2 0.7,-0.3 0.2,-0.1 0.4,-0.3 0.6,-0.5 0.4,-0.4 0.5,-0.9 0,-1.4 l 0.5,-0.4 2.8,2.9 -0.5,0.4 c -0.2,-0.2 -0.4,-0.2 -0.6,-0.3 -0.2,0 -0.5,0 -0.7,0 -0.3,0.1 -0.6,0.2 -1.1,0.4 l -10.3,4.3 -1.7,-1.8 5.6,-9.5 c 0.3,-0.4 0.4,-0.7 0.5,-0.9 0.1,-0.2 0.1,-0.4 0.1,-0.6 0,-0.2 -0.1,-0.4 -0.2,-0.6 l 0.5,-0.4 3.6,3.8 -0.5,0.4 c -0.3,-0.2 -0.5,-0.3 -0.7,-0.3 -0.2,0 -0.4,0.1 -0.6,0.2 -0.1,0.1 -0.3,0.3 -0.4,0.5 -0.1,0.2 -0.3,0.5 -0.5,0.8 z m 1.7,3.5 -2.3,-2.5 -2.8,4.7 z"
   id="path31"
   inkscape:connector-curvature="0"
   style="fill:#b8282e" />
		<path
   class="st0"
   d="m 714.8,306.1 -0.5,0.3 c -0.2,-0.2 -0.3,-0.3 -0.5,-0.4 -0.1,-0.1 -0.3,-0.1 -0.4,-0.1 -0.2,0 -0.3,0.1 -0.5,0.2 -0.2,0.1 -0.4,0.2 -0.7,0.4 l -7.9,5.2 0.4,0.6 c 0.2,0.3 0.4,0.5 0.6,0.7 0.2,0.1 0.4,0.2 0.6,0.2 0.2,0 0.5,0 0.8,-0.1 0.3,-0.1 0.6,-0.2 0.9,-0.3 l 0.7,1.1 -2.8,1.8 -6.1,-9.3 2.8,-1.8 0.7,1.1 c -0.3,0.3 -0.5,0.6 -0.6,0.8 -0.1,0.2 -0.2,0.3 -0.3,0.5 -0.1,0.1 -0.1,0.3 -0.1,0.4 0,0.1 0,0.3 0,0.4 0,0.1 0,0.3 0.1,0.4 0.1,0.1 0.2,0.3 0.3,0.5 l 0.4,0.6 7.9,-5.2 c 0.3,-0.2 0.5,-0.3 0.6,-0.4 0.1,-0.1 0.2,-0.2 0.3,-0.3 0.1,-0.1 0.1,-0.2 0.1,-0.3 0,-0.1 0,-0.2 0,-0.4 0,-0.1 -0.1,-0.3 -0.2,-0.5 l 0.5,-0.3 z"
   id="path33"
   inkscape:connector-curvature="0"
   style="fill:#b8282e" />
		<path
   class="st0"
   d="m 704.5,292.6 c 0.2,-0.1 0.4,-0.2 0.6,-0.3 0.2,-0.1 0.3,-0.2 0.4,-0.3 0.1,-0.1 0.2,-0.2 0.2,-0.3 0,-0.1 0.1,-0.2 0.1,-0.4 0,-0.1 0,-0.3 0,-0.5 l 0.6,-0.3 2,4.5 -0.6,0.3 c -0.2,-0.2 -0.3,-0.3 -0.4,-0.4 -0.1,-0.1 -0.3,-0.1 -0.4,-0.2 -0.1,0 -0.3,0 -0.5,0.1 -0.2,0.1 -0.4,0.2 -0.7,0.3 l -7.4,3.4 c -0.3,0.1 -0.5,0.2 -0.7,0.3 -0.2,0.1 -0.3,0.2 -0.4,0.3 -0.1,0.1 -0.1,0.2 -0.2,0.4 0,0.2 0,0.4 0,0.6 l -0.6,0.3 -2,-4.5 0.6,-0.3 c 0.2,0.2 0.3,0.3 0.4,0.4 0.1,0.1 0.2,0.1 0.4,0.1 0.1,0 0.3,0 0.5,-0.1 0.2,-0.1 0.4,-0.2 0.7,-0.3 z"
   id="path35"
   inkscape:connector-curvature="0"
   style="fill:#b8282e" />
		<path
   class="st0"
   d="m 703.1,280.8 c 0.5,1.8 0.3,3.3 -0.5,4.4 -0.8,1.2 -2.3,2 -4.3,2.6 -1.4,0.4 -2.6,0.5 -3.7,0.3 -1.1,-0.2 -2,-0.6 -2.7,-1.3 -0.7,-0.7 -1.3,-1.6 -1.6,-2.8 -0.5,-1.8 -0.3,-3.3 0.5,-4.5 0.8,-1.2 2.2,-2.1 4.3,-2.6 1.1,-0.3 2.2,-0.4 3.1,-0.4 0.9,0.1 1.7,0.3 2.3,0.6 0.7,0.4 1.2,0.9 1.6,1.5 0.4,0.6 0.7,1.3 1,2.2 z m -5.9,4.2 c 1.8,-0.5 3.1,-1.1 3.9,-1.8 0.8,-0.7 1,-1.5 0.8,-2.4 -0.1,-0.5 -0.4,-0.8 -0.7,-1.1 -0.3,-0.3 -0.8,-0.4 -1.3,-0.5 -0.5,-0.1 -1.1,-0.1 -1.7,0 -0.6,0.1 -1.3,0.2 -2.1,0.4 -1.2,0.3 -2.2,0.7 -3,1.1 -0.8,0.4 -1.3,0.9 -1.6,1.4 -0.3,0.5 -0.4,1 -0.2,1.6 0.2,0.9 0.8,1.4 1.8,1.6 1,0.3 2.4,0.2 4.1,-0.3 z"
   id="path37"
   inkscape:connector-curvature="0"
   style="fill:#b8282e" />
		<path
   class="st0"
   d="m 687.1,259.8 h 0.6 c 0.1,0.2 0.2,0.4 0.2,0.5 0.1,0.1 0.1,0.2 0.2,0.3 0.1,0.1 0.2,0.1 0.4,0.1 0.2,0 0.5,0 0.9,0 l 10.6,-0.7 0.1,2.4 -7.1,4.7 c -1,0.6 -1.7,1.1 -2.3,1.4 v 0.1 c 1.3,-0.1 2.8,-0.3 4.3,-0.3 l 3,-0.2 c 0.5,0 0.8,-0.1 1,-0.1 0.2,-0.1 0.3,-0.2 0.4,-0.3 0.1,-0.1 0.2,-0.4 0.3,-0.7 h 0.6 l 0.2,3.6 h -0.6 c -0.1,-0.2 -0.2,-0.4 -0.2,-0.5 -0.1,-0.1 -0.2,-0.2 -0.3,-0.3 -0.1,-0.1 -0.3,-0.1 -0.5,-0.1 -0.2,0 -0.4,0 -0.7,0 l -8.2,0.5 c -0.5,0 -0.8,0.1 -1,0.1 -0.2,0.1 -0.3,0.1 -0.4,0.3 -0.1,0.1 -0.2,0.4 -0.3,0.7 h -0.6 l -0.2,-3.8 5.6,-3.7 c 0.4,-0.2 0.8,-0.5 1.4,-0.9 0.6,-0.4 1.2,-0.7 1.7,-1 v -0.2 c -1.5,0.2 -3.1,0.3 -4.9,0.4 l -1.8,0.1 c -0.4,0 -0.7,0.1 -0.9,0.1 -0.2,0 -0.3,0.1 -0.4,0.2 -0.1,0.1 -0.2,0.2 -0.2,0.3 -0.1,0.1 -0.1,0.3 -0.2,0.6 h -0.6 z"
   id="path39"
   inkscape:connector-curvature="0"
   style="fill:#b8282e" />
		<path
   class="st0"
   d="m 697.1,247.6 -0.5,4 0.8,0.4 c 0.2,0.1 0.5,0.2 0.7,0.3 0.2,0.1 0.5,0.1 0.7,0.2 0.6,0.1 1,-0.2 1.1,-0.8 l 0.6,0.1 -0.5,4 -0.6,-0.1 c 0,-0.2 0,-0.4 -0.2,-0.6 -0.1,-0.2 -0.3,-0.4 -0.5,-0.6 -0.2,-0.2 -0.5,-0.4 -1,-0.6 l -9.9,-5.3 0.3,-2.5 10.9,-1.7 c 0.5,-0.1 0.8,-0.1 1,-0.2 0.2,-0.1 0.4,-0.2 0.5,-0.3 0.1,-0.1 0.3,-0.3 0.4,-0.6 l 0.6,0.1 -0.7,5.2 -0.6,-0.1 c 0,-0.3 -0.1,-0.6 -0.2,-0.8 -0.1,-0.2 -0.3,-0.3 -0.6,-0.3 -0.2,0 -0.4,0 -0.7,0 -0.2,0 -0.6,0 -0.9,0.1 z m -1.6,3.5 0.4,-3.4 -5.5,0.8 z"
   id="path41"
   inkscape:connector-curvature="0"
   style="fill:#b8282e" />
		<path
   class="st0"
   d="m 692,230.8 0.6,0.2 c 0,0.2 0,0.4 0,0.6 0,0.1 0.1,0.3 0.2,0.4 0.1,0.1 0.2,0.2 0.4,0.3 0.2,0.1 0.4,0.2 0.7,0.3 l 8.9,2.9 0.6,-1.7 c 0.1,-0.3 0.1,-0.6 0.1,-0.9 0,-0.2 -0.1,-0.5 -0.3,-0.7 -0.2,-0.2 -0.4,-0.5 -0.8,-0.7 -0.3,-0.2 -0.6,-0.4 -0.9,-0.6 l 0.4,-1.2 3.6,1.4 -2.8,8.6 -0.6,-0.2 c 0,-0.2 0,-0.4 0,-0.6 0,-0.2 -0.1,-0.3 -0.2,-0.4 -0.1,-0.1 -0.2,-0.2 -0.4,-0.3 -0.2,-0.1 -0.4,-0.2 -0.7,-0.3 l -7.7,-2.5 c -0.3,-0.1 -0.5,-0.2 -0.7,-0.2 -0.2,0 -0.4,-0.1 -0.5,0 -0.1,0 -0.3,0.1 -0.4,0.2 -0.1,0.1 -0.2,0.3 -0.4,0.5 l -0.6,-0.2 z"
   id="path43"
   inkscape:connector-curvature="0"
   style="fill:#b8282e" />
		<path
   class="st0"
   d="m 705.3,205.3 2.3,1.5 -0.7,1.1 c -0.7,-0.3 -1.2,-0.4 -1.7,-0.3 -0.5,0.1 -0.8,0.4 -1.1,0.8 -0.5,0.8 -0.6,1.7 0,2.7 0.5,0.9 1.6,1.9 3.1,3 1.5,1 2.7,1.5 3.7,1.6 1,0.1 1.8,-0.2 2.2,-1 0.3,-0.4 0.4,-0.7 0.4,-1.1 0,-0.3 0,-0.6 -0.2,-1 -0.2,-0.3 -0.4,-0.7 -0.8,-1.1 l 0.7,-1.1 2.4,1.6 c -0.2,0.7 -0.5,1.3 -0.7,1.8 -0.3,0.5 -0.5,1 -0.9,1.6 -0.7,1.1 -1.5,1.9 -2.3,2.3 -0.8,0.4 -1.8,0.6 -2.8,0.4 -1,-0.2 -2.1,-0.7 -3.4,-1.5 -1.1,-0.7 -2,-1.6 -2.6,-2.5 -0.6,-0.9 -0.9,-1.9 -0.8,-3 0,-1.1 0.4,-2.1 1.1,-3.2 0.3,-0.5 0.7,-1 1,-1.4 0.3,-0.4 0.7,-0.8 1.1,-1.2 z"
   id="path45"
   inkscape:connector-curvature="0"
   style="fill:#b8282e" />
		<path
   class="st0"
   d="m 724.7,198.9 c 0.3,0.3 0.6,0.6 0.8,0.7 0.2,0.1 0.3,0.1 0.5,0.1 0.2,0 0.4,-0.1 0.7,-0.3 l 0.4,0.4 -3.4,3.5 -0.4,-0.4 c 0.2,-0.3 0.3,-0.6 0.3,-0.7 0,-0.1 0,-0.3 -0.1,-0.4 -0.1,-0.2 -0.3,-0.4 -0.7,-0.8 l -2.7,-2.6 -3,3.1 2.7,2.6 c 0.2,0.2 0.3,0.3 0.5,0.4 0.1,0.1 0.3,0.2 0.4,0.3 0.1,0.1 0.2,0.1 0.3,0.1 0.1,0 0.2,0 0.4,-0.1 0.1,0 0.3,-0.1 0.4,-0.2 l 0.4,0.4 -3.5,3.5 -0.4,-0.4 c 0.1,-0.2 0.2,-0.4 0.2,-0.5 0,-0.1 0,-0.3 0,-0.4 0,-0.1 -0.1,-0.3 -0.3,-0.4 -0.1,-0.2 -0.3,-0.3 -0.5,-0.5 l -5.8,-5.7 c -0.2,-0.2 -0.4,-0.4 -0.6,-0.5 -0.2,-0.1 -0.3,-0.2 -0.4,-0.3 -0.1,0 -0.3,0 -0.4,0 -0.2,0 -0.3,0.1 -0.5,0.3 l -0.4,-0.4 3.5,-3.5 0.4,0.4 c -0.2,0.3 -0.3,0.5 -0.3,0.7 0,0.2 0,0.3 0.1,0.5 0.1,0.2 0.3,0.4 0.7,0.8 l 2.3,2.2 3,-3.1 -2.3,-2.2 c -0.3,-0.3 -0.6,-0.6 -0.8,-0.7 -0.2,-0.1 -0.3,-0.1 -0.5,-0.1 -0.2,0 -0.4,0.1 -0.7,0.3 l -0.4,-0.4 3.4,-3.5 0.4,0.4 c -0.1,0.3 -0.2,0.5 -0.2,0.6 0,0.1 0,0.3 0,0.4 0.1,0.1 0.1,0.3 0.2,0.4 0.1,0.1 0.3,0.3 0.5,0.5 z"
   id="path47"
   inkscape:connector-curvature="0"
   style="fill:#b8282e" />
		<path
   class="st0"
   d="m 731.1,181 1.7,2.5 -1.1,0.7 c -0.5,-0.4 -0.9,-0.6 -1.1,-0.7 -0.2,-0.1 -0.5,-0.1 -0.7,-0.1 -0.2,0 -0.6,0.2 -0.9,0.4 l -1.7,1.2 2.6,3.7 1,-0.7 c 0.2,-0.2 0.4,-0.3 0.5,-0.5 0.1,-0.2 0.1,-0.3 0.1,-0.5 0,-0.2 -0.1,-0.5 -0.2,-0.9 l 0.9,-0.6 2.2,3.2 -0.9,0.6 c -0.3,-0.2 -0.5,-0.4 -0.7,-0.5 -0.2,-0.1 -0.4,-0.1 -0.5,-0.1 -0.2,0 -0.4,0.1 -0.6,0.3 l -1,0.7 2.9,4.1 1.7,-1.2 c 0.2,-0.1 0.3,-0.2 0.4,-0.4 0.1,-0.1 0.2,-0.2 0.3,-0.4 0.1,-0.1 0.1,-0.3 0.1,-0.4 0,-0.2 0,-0.3 0,-0.5 0,-0.2 0,-0.4 -0.1,-0.6 0,-0.2 -0.1,-0.6 -0.3,-0.9 l 1.1,-0.7 1.8,2.9 -7.6,5.3 -0.4,-0.5 c 0.2,-0.2 0.3,-0.3 0.3,-0.5 0.1,-0.1 0.1,-0.3 0.1,-0.4 0,-0.1 -0.1,-0.3 -0.2,-0.5 -0.1,-0.2 -0.2,-0.4 -0.4,-0.6 l -4.6,-6.7 c -0.2,-0.2 -0.3,-0.4 -0.4,-0.6 -0.1,-0.2 -0.3,-0.3 -0.4,-0.3 -0.1,-0.1 -0.3,-0.1 -0.4,-0.1 -0.2,0 -0.3,0.1 -0.6,0.1 l -0.4,-0.5 z"
   id="path49"
   inkscape:connector-curvature="0"
   style="fill:#b8282e" />
		<path
   class="st0"
   d="m 747.7,172.8 0.3,0.6 c -0.2,0.2 -0.3,0.3 -0.4,0.4 -0.1,0.1 -0.1,0.2 -0.2,0.3 0,0.1 0,0.3 0,0.5 0,0.2 0.1,0.5 0.3,0.8 l 4.3,9.6 -2.2,1 -6.9,-5 c -0.9,-0.7 -1.6,-1.2 -2.1,-1.6 h -0.1 c 0.6,1.2 1.2,2.5 1.8,3.9 l 1.2,2.8 c 0.2,0.4 0.3,0.7 0.5,0.9 0.1,0.2 0.3,0.3 0.4,0.3 0.2,0.1 0.4,0 0.8,0 l 0.3,0.6 -3.3,1.5 -0.3,-0.6 c 0.2,-0.2 0.3,-0.3 0.4,-0.4 0.1,-0.1 0.1,-0.3 0.2,-0.4 0,-0.1 0,-0.3 -0.1,-0.5 -0.1,-0.2 -0.2,-0.4 -0.3,-0.7 l -3.3,-7.5 c -0.2,-0.4 -0.3,-0.7 -0.5,-0.9 -0.1,-0.1 -0.3,-0.2 -0.4,-0.3 -0.2,-0.1 -0.4,-0.1 -0.8,0 l -0.3,-0.6 3.5,-1.6 5.4,3.9 c 0.3,0.2 0.8,0.6 1.3,1 0.6,0.4 1.1,0.9 1.5,1.3 l 0.1,-0.1 c -0.7,-1.3 -1.4,-2.8 -2.1,-4.5 l -0.7,-1.6 c -0.2,-0.4 -0.3,-0.6 -0.4,-0.8 -0.1,-0.2 -0.2,-0.3 -0.3,-0.3 -0.1,-0.1 -0.2,-0.1 -0.3,-0.1 -0.1,0 -0.3,0 -0.6,0 l -0.3,-0.6 z"
   id="path51"
   inkscape:connector-curvature="0"
   style="fill:#b8282e" />
		<path
   class="st0"
   d="m 764.2,168.8 0.6,2.6 -1.3,0.3 c -0.3,-0.5 -0.5,-0.8 -0.8,-1.1 -0.2,-0.2 -0.5,-0.4 -0.8,-0.5 -0.3,-0.1 -0.7,-0.1 -1.1,0 -0.6,0.1 -1.1,0.4 -1.5,0.9 -0.4,0.5 -0.6,1.2 -0.7,2 -0.1,0.9 0,1.9 0.3,3.2 0.2,1.1 0.5,2 0.9,2.7 0.4,0.7 0.8,1.3 1.2,1.7 0.5,0.4 1,0.5 1.5,0.3 0.5,-0.1 0.9,-0.4 1.1,-0.8 0.2,-0.4 0.2,-0.9 0,-1.6 l -0.1,-0.3 c -0.1,-0.5 -0.2,-0.8 -0.3,-1 -0.1,-0.2 -0.2,-0.3 -0.2,-0.4 -0.1,-0.1 -0.2,-0.1 -0.3,-0.2 -0.1,0 -0.3,-0.1 -0.6,-0.1 l -0.1,-0.6 4.7,-1.1 0.1,0.6 c -0.3,0.2 -0.5,0.3 -0.6,0.5 -0.1,0.1 -0.1,0.3 -0.1,0.5 0,0.2 0,0.5 0.1,0.8 l 0.8,3.5 -1.3,0.6 -0.8,-0.5 c -0.6,0.6 -1.4,1 -2.4,1.2 -1.8,0.4 -3.2,0.2 -4.4,-0.7 -1.1,-0.8 -1.9,-2.3 -2.4,-4.5 -0.3,-1.1 -0.3,-2.1 -0.2,-3.1 0.1,-0.9 0.4,-1.7 0.8,-2.4 0.4,-0.7 1,-1.2 1.6,-1.6 0.6,-0.4 1.4,-0.7 2.2,-0.9 1.7,0 2.9,-0.1 4.1,0 z"
   id="path53"
   inkscape:connector-curvature="0"
   style="fill:#b8282e" />
		<path
   class="st0"
   d="m 790.4,178 c 0.2,0.4 0.4,0.7 0.6,0.9 0.2,0.2 0.3,0.4 0.4,0.5 0.1,0.1 0.2,0.2 0.4,0.3 0.1,0.1 0.3,0.1 0.5,0.2 v 0.6 l -5.1,-0.3 v -0.6 c 0.2,0 0.4,-0.1 0.4,-0.1 0.1,-0.1 0.1,-0.2 0.1,-0.3 0,-0.1 0,-0.2 0,-0.3 0,-0.1 -0.1,-0.2 -0.2,-0.4 -0.1,-0.2 -0.3,-0.6 -0.6,-1.1 l -1.3,-2.3 c -0.2,-0.3 -0.3,-0.5 -0.4,-0.7 -0.1,-0.2 -0.2,-0.3 -0.4,-0.3 -0.1,-0.1 -0.3,-0.1 -0.5,-0.1 h -0.2 l -0.2,3.7 c 0,0.2 0,0.4 0,0.6 0,0.2 0,0.3 0.1,0.5 0,0.1 0.1,0.2 0.1,0.3 0.1,0.1 0.2,0.2 0.3,0.2 0.1,0.1 0.3,0.1 0.5,0.2 v 0.6 l -4.9,-0.3 v -0.6 c 0.2,-0.1 0.4,-0.1 0.6,-0.2 0.1,-0.1 0.2,-0.2 0.3,-0.3 0.1,-0.1 0.1,-0.3 0.2,-0.5 0,-0.2 0.1,-0.4 0.1,-0.7 l 0.4,-8.1 c 0,-0.3 0,-0.5 0,-0.7 0,-0.2 0,-0.4 -0.1,-0.5 -0.1,-0.1 -0.2,-0.2 -0.3,-0.3 -0.1,-0.1 -0.3,-0.2 -0.6,-0.2 v -0.6 l 4.9,0.3 v 0.6 c -0.3,0.1 -0.5,0.1 -0.6,0.2 -0.1,0.1 -0.2,0.2 -0.3,0.3 -0.1,0.1 -0.1,0.3 -0.1,0.4 0,0.2 -0.1,0.4 -0.1,0.8 l -0.2,3.4 h 0.2 c 0.3,0 0.5,0 0.7,-0.1 0.2,-0.1 0.4,-0.2 0.5,-0.3 0.2,-0.2 0.6,-0.5 1.1,-1.1 0.5,-0.6 0.9,-1 1.2,-1.3 0.2,-0.3 0.4,-0.6 0.5,-0.8 0.1,-0.2 0.1,-0.4 0.2,-0.6 0,-0.2 -0.1,-0.4 -0.2,-0.5 -0.1,-0.1 -0.3,-0.2 -0.6,-0.2 v -0.6 l 4.8,0.3 v 0.6 c -0.2,0 -0.4,0.1 -0.6,0.2 -0.2,0.1 -0.4,0.2 -0.6,0.4 -0.2,0.2 -0.5,0.5 -0.9,0.8 l -3,3 z"
   id="path55"
   inkscape:connector-curvature="0"
   style="fill:#b8282e" />
		<path
   class="st0"
   d="m 806.3,173.4 c 0.1,-0.5 0.2,-0.8 0.2,-1 0,-0.2 0,-0.4 -0.1,-0.5 -0.1,-0.1 -0.3,-0.3 -0.6,-0.5 l 0.2,-0.6 4,1.1 -0.2,0.6 c -0.2,0 -0.4,0 -0.6,0.1 -0.1,0 -0.3,0.1 -0.4,0.2 -0.1,0.1 -0.2,0.3 -0.3,0.4 -0.1,0.2 -0.1,0.4 -0.2,0.7 l -1.5,5.7 c -0.2,0.8 -0.4,1.4 -0.7,1.8 -0.3,0.5 -0.6,0.9 -0.9,1.1 -0.3,0.3 -0.7,0.5 -1.2,0.6 -0.4,0.1 -0.9,0.1 -1.4,0.1 -0.5,0 -1,-0.1 -1.6,-0.3 -0.9,-0.2 -1.6,-0.5 -2.1,-0.9 -0.5,-0.3 -1,-0.7 -1.2,-1.2 -0.3,-0.5 -0.4,-1 -0.5,-1.5 0,-0.6 0,-1.3 0.3,-2.1 l 1.6,-5.9 c 0.1,-0.3 0.1,-0.5 0.2,-0.7 0,-0.2 0,-0.4 0,-0.5 0,-0.1 -0.1,-0.3 -0.2,-0.4 -0.1,-0.1 -0.3,-0.2 -0.5,-0.4 l 0.2,-0.6 4.8,1.3 -0.2,0.6 c -0.3,0 -0.5,0 -0.6,0.1 -0.1,0 -0.3,0.1 -0.3,0.2 -0.1,0.1 -0.2,0.2 -0.2,0.4 -0.1,0.2 -0.2,0.4 -0.2,0.8 l -1.6,6 c -0.1,0.5 -0.2,0.9 -0.3,1.3 0,0.4 0,0.8 0.1,1.1 0.1,0.3 0.3,0.6 0.5,0.8 0.2,0.2 0.6,0.4 1,0.5 0.6,0.2 1.1,0.2 1.5,0 0.4,-0.2 0.7,-0.5 0.9,-0.9 0.2,-0.4 0.5,-1.1 0.7,-2 z"
   id="path57"
   inkscape:connector-curvature="0"
   style="fill:#b8282e" />
		<path
   class="st0"
   d="m 826.8,179.5 -0.3,0.6 c -0.3,0 -0.5,-0.1 -0.6,-0.1 -0.1,0 -0.2,0 -0.3,0.1 -0.1,0.1 -0.2,0.2 -0.3,0.3 -0.1,0.2 -0.3,0.4 -0.4,0.8 l -4.7,9.4 -2.1,-1.1 -0.5,-8.5 c -0.1,-1.1 -0.1,-2 -0.1,-2.7 h -0.1 c -0.5,1.2 -1.2,2.5 -1.8,3.9 l -1.4,2.7 c -0.2,0.4 -0.3,0.7 -0.4,0.9 0,0.2 0,0.4 0,0.5 0.1,0.2 0.2,0.3 0.5,0.6 l -0.3,0.6 -3.2,-1.6 0.3,-0.6 c 0.2,0 0.4,0.1 0.6,0.1 0.2,0 0.3,-0.1 0.4,-0.1 0.1,-0.1 0.2,-0.2 0.3,-0.4 0.1,-0.2 0.2,-0.4 0.4,-0.6 l 3.7,-7.3 c 0.2,-0.4 0.3,-0.7 0.4,-0.9 0,-0.2 0,-0.4 0,-0.5 -0.1,-0.2 -0.2,-0.4 -0.5,-0.6 l 0.3,-0.6 3.4,1.7 0.4,6.7 c 0,0.4 0,1 0.1,1.7 0,0.7 0,1.4 0,2 l 0.1,0.1 c 0.6,-1.4 1.3,-2.9 2.1,-4.5 l 0.8,-1.6 c 0.2,-0.4 0.3,-0.6 0.4,-0.8 0.1,-0.2 0.1,-0.3 0.1,-0.4 0,-0.1 -0.1,-0.2 -0.1,-0.3 -0.1,-0.1 -0.2,-0.3 -0.4,-0.4 l 0.3,-0.6 z"
   id="path59"
   inkscape:connector-curvature="0"
   style="fill:#b8282e" />
		<path
   class="st0"
   d="m 840.4,189.7 -1.6,2.1 -1,-0.8 c 0.2,-0.5 0.3,-0.9 0.4,-1.3 0,-0.3 0,-0.7 -0.2,-0.9 -0.1,-0.3 -0.4,-0.6 -0.8,-0.9 -0.5,-0.4 -1,-0.6 -1.7,-0.6 -0.6,0 -1.3,0.3 -2,0.7 -0.7,0.5 -1.5,1.2 -2.3,2.2 -0.7,0.9 -1.2,1.7 -1.5,2.4 -0.4,0.8 -0.5,1.4 -0.5,2 0,0.6 0.3,1.1 0.7,1.4 0.4,0.3 0.9,0.5 1.3,0.4 0.4,-0.1 0.8,-0.4 1.3,-1 l 0.2,-0.3 c 0.3,-0.4 0.5,-0.7 0.6,-0.8 0.1,-0.2 0.2,-0.3 0.2,-0.5 0,-0.1 0,-0.2 -0.1,-0.4 0,-0.1 -0.2,-0.3 -0.3,-0.5 l 0.4,-0.5 3.8,3 -0.4,0.5 c -0.3,-0.1 -0.5,-0.2 -0.7,-0.1 -0.2,0 -0.3,0.1 -0.5,0.2 -0.2,0.1 -0.3,0.3 -0.6,0.6 l -2.2,2.8 -1.2,-0.6 -0.1,-0.9 c -0.9,-0.1 -1.7,-0.4 -2.5,-1 -1.5,-1.1 -2.2,-2.4 -2.3,-3.8 -0.1,-1.4 0.6,-3 1.9,-4.7 0.7,-0.9 1.4,-1.6 2.2,-2.1 0.8,-0.5 1.6,-0.8 2.4,-0.9 0.8,-0.1 1.5,0 2.3,0.2 0.7,0.2 1.4,0.6 2,1.1 1.2,1.1 2.1,2 2.8,3 z"
   id="path61"
   inkscape:connector-curvature="0"
   style="fill:#b8282e" />
		<path
   class="st0"
   d="m 855.2,209.4 c 0.4,-0.3 0.6,-0.5 0.8,-0.6 0.1,-0.1 0.2,-0.3 0.2,-0.5 0,-0.2 0,-0.4 -0.2,-0.7 l 0.5,-0.4 2.4,3.4 -0.5,0.4 c -0.2,-0.1 -0.3,-0.3 -0.5,-0.3 -0.1,-0.1 -0.3,-0.1 -0.4,-0.1 -0.1,0 -0.3,0.1 -0.5,0.2 -0.2,0.1 -0.4,0.2 -0.6,0.4 l -4.8,3.4 c -0.6,0.5 -1.2,0.8 -1.7,1 -0.5,0.2 -1,0.3 -1.4,0.3 -0.4,0 -0.9,-0.1 -1.3,-0.3 -0.4,-0.2 -0.8,-0.5 -1.2,-0.8 -0.4,-0.3 -0.7,-0.8 -1.1,-1.3 -0.5,-0.7 -0.9,-1.4 -1.1,-2 -0.2,-0.6 -0.3,-1.2 -0.2,-1.7 0.1,-0.5 0.3,-1 0.6,-1.5 0.3,-0.5 0.8,-0.9 1.5,-1.4 l 5,-3.6 c 0.2,-0.2 0.4,-0.3 0.6,-0.5 0.2,-0.1 0.3,-0.3 0.3,-0.4 0.1,-0.1 0.1,-0.3 0.1,-0.4 0,-0.2 -0.1,-0.3 -0.2,-0.6 l 0.5,-0.4 2.9,4 -0.5,0.4 c -0.2,-0.2 -0.4,-0.3 -0.5,-0.3 -0.1,-0.1 -0.3,-0.1 -0.4,-0.1 -0.1,0 -0.3,0.1 -0.4,0.2 -0.2,0.1 -0.4,0.2 -0.7,0.4 l -5.1,3.6 c -0.4,0.3 -0.8,0.6 -1,0.9 -0.3,0.3 -0.5,0.6 -0.7,0.9 -0.1,0.3 -0.2,0.6 -0.1,1 0,0.3 0.2,0.7 0.5,1.1 0.4,0.5 0.8,0.8 1.2,0.9 0.4,0.1 0.8,0.1 1.3,-0.1 0.5,-0.2 1.1,-0.5 1.8,-1.1 z"
   id="path63"
   inkscape:connector-curvature="0"
   style="fill:#b8282e" />
		<path
   class="st0"
   d="m 867.2,227.1 -0.6,0.3 c -0.2,-0.2 -0.3,-0.3 -0.4,-0.4 -0.1,-0.1 -0.2,-0.1 -0.3,-0.1 -0.1,0 -0.3,0 -0.5,0 -0.2,0 -0.5,0.1 -0.8,0.3 l -9.6,4.3 -1,-2.2 4.9,-6.9 c 0.7,-0.9 1.2,-1.6 1.6,-2.1 v -0.1 c -1.2,0.6 -2.5,1.2 -3.9,1.8 l -2.8,1.3 c -0.4,0.2 -0.7,0.4 -0.9,0.5 -0.2,0.1 -0.3,0.3 -0.3,0.4 0,0.2 0,0.4 0,0.8 l -0.6,0.3 -1.5,-3.3 0.6,-0.3 c 0.2,0.2 0.3,0.3 0.4,0.4 0.1,0.1 0.3,0.1 0.4,0.1 0.1,0 0.3,0 0.5,-0.1 0.2,-0.1 0.4,-0.2 0.7,-0.3 l 7.4,-3.4 c 0.4,-0.2 0.7,-0.3 0.9,-0.5 0.1,-0.1 0.2,-0.3 0.3,-0.4 0.1,-0.2 0.1,-0.4 0,-0.8 l 0.6,-0.3 1.6,3.5 -3.9,5.4 c -0.2,0.3 -0.6,0.8 -1,1.3 -0.4,0.6 -0.8,1.1 -1.2,1.5 l 0.1,0.1 c 1.3,-0.7 2.8,-1.4 4.4,-2.1 l 1.6,-0.7 c 0.4,-0.2 0.6,-0.3 0.8,-0.4 0.2,-0.1 0.3,-0.2 0.3,-0.3 0.1,-0.1 0.1,-0.2 0.1,-0.3 0,-0.1 0,-0.3 0,-0.6 l 0.6,-0.3 z"
   id="path65"
   inkscape:connector-curvature="0"
   style="fill:#b8282e" />
		<path
   class="st0"
   d="m 860,240.1 c -0.2,0.1 -0.4,0.1 -0.6,0.2 -0.2,0.1 -0.3,0.1 -0.4,0.2 -0.1,0.1 -0.2,0.1 -0.3,0.2 -0.1,0.1 -0.1,0.2 -0.1,0.3 0,0.1 0,0.3 0,0.5 l -0.6,0.2 -1.3,-4.8 0.6,-0.2 c 0.1,0.2 0.2,0.4 0.3,0.5 0.1,0.1 0.2,0.2 0.4,0.2 0.1,0 0.3,0 0.5,0 0.2,0 0.4,-0.1 0.7,-0.2 l 7.9,-2.1 c 0.3,-0.1 0.5,-0.2 0.7,-0.2 0.2,-0.1 0.3,-0.1 0.4,-0.2 0.1,-0.1 0.2,-0.2 0.2,-0.4 0,-0.1 0.1,-0.3 0.1,-0.6 l 0.6,-0.2 1.3,4.8 -0.6,0.2 c -0.1,-0.2 -0.3,-0.4 -0.4,-0.5 -0.1,-0.1 -0.2,-0.2 -0.3,-0.2 -0.1,0 -0.3,0 -0.5,0 -0.2,0 -0.4,0.1 -0.8,0.2 z"
   id="path67"
   inkscape:connector-curvature="0"
   style="fill:#b8282e" />
		<path
   class="st0"
   d="m 869.7,253.4 c 0.3,0.1 0.5,0.1 0.8,0.1 0.2,0 0.5,0 0.7,0 0.3,0 0.5,-0.1 0.7,-0.3 0.1,-0.2 0.2,-0.4 0.2,-0.8 l 0.6,-0.1 0.4,4 -0.6,0.1 c -0.1,-0.2 -0.2,-0.4 -0.3,-0.6 -0.1,-0.2 -0.3,-0.3 -0.5,-0.4 -0.2,-0.1 -0.6,-0.2 -1.1,-0.4 l -10.9,-2.8 -0.2,-2.2 10.2,-4.2 c 0.5,-0.2 0.8,-0.3 1,-0.5 0.2,-0.1 0.3,-0.3 0.4,-0.4 0.1,-0.2 0.2,-0.4 0.2,-0.7 l 0.6,-0.1 0.5,5.2 -0.6,0.1 c -0.1,-0.3 -0.2,-0.6 -0.3,-0.7 -0.2,-0.1 -0.4,-0.2 -0.6,-0.2 -0.2,0 -0.4,0.1 -0.6,0.1 -0.2,0.1 -0.5,0.2 -0.9,0.3 l -6.5,2.6 z"
   id="path69"
   inkscape:connector-curvature="0"
   style="fill:#b8282e" />
		<path
   class="st0"
   d="m 872.3,271.9 -3,-0.3 0.1,-1.3 c 0.6,-0.2 1,-0.3 1.3,-0.4 0.2,-0.1 0.4,-0.3 0.5,-0.5 0.1,-0.2 0.2,-0.5 0.3,-1 l 0.2,-2.1 -4.5,-0.4 -0.1,1.2 c 0,0.3 0,0.5 0.1,0.7 0.1,0.2 0.2,0.3 0.4,0.4 0.2,0.1 0.4,0.2 0.8,0.4 l -0.1,1.1 -3.8,-0.3 0.1,-1.1 c 0.4,-0.1 0.7,-0.1 0.9,-0.2 0.2,-0.1 0.3,-0.2 0.4,-0.3 0.1,-0.1 0.2,-0.4 0.2,-0.7 l 0.1,-1.2 -5,-0.4 -0.2,2 c 0,0.2 0,0.4 0,0.6 0,0.2 0.1,0.3 0.1,0.4 0.1,0.1 0.1,0.2 0.3,0.4 0.1,0.1 0.2,0.2 0.4,0.3 0.1,0.1 0.3,0.2 0.5,0.3 0.2,0.1 0.5,0.2 0.9,0.4 l -0.1,1.3 -3.4,-0.5 0.8,-9.2 0.6,0.1 c 0,0.2 0.1,0.4 0.2,0.6 0.1,0.1 0.2,0.2 0.3,0.3 0.1,0.1 0.3,0.1 0.5,0.2 0.2,0 0.4,0.1 0.7,0.1 l 8.1,0.7 c 0.3,0 0.5,0 0.7,0 0.2,0 0.4,0 0.5,-0.1 0.1,-0.1 0.2,-0.1 0.3,-0.3 0.1,-0.1 0.2,-0.3 0.3,-0.5 l 0.6,0.1 z"
   id="path71"
   inkscape:connector-curvature="0"
   style="fill:#b8282e" />
		<path
   class="st0"
   d="m 857.4,280.3 1.3,-4.8 0.6,0.2 c 0,0.2 0,0.4 0.1,0.6 0,0.1 0.1,0.3 0.2,0.4 0.1,0.1 0.3,0.2 0.4,0.3 0.2,0.1 0.4,0.1 0.7,0.2 l 7.9,2.1 c 0.3,0.1 0.5,0.1 0.7,0.2 0.2,0 0.4,0 0.5,0 0.1,0 0.3,-0.1 0.4,-0.2 0.1,-0.1 0.2,-0.3 0.4,-0.5 l 0.6,0.2 -1.4,5.3 c -0.2,0.7 -0.4,1.3 -0.6,1.8 -0.2,0.5 -0.5,0.9 -0.8,1.2 -0.3,0.3 -0.5,0.5 -0.9,0.6 -0.3,0.1 -0.7,0.2 -1,0.3 -0.4,0 -0.8,0 -1.2,-0.1 -0.6,-0.2 -1.1,-0.4 -1.4,-0.7 -0.4,-0.3 -0.6,-0.7 -0.8,-1.1 -0.2,-0.4 -0.3,-1 -0.4,-1.6 h -0.1 c -0.3,0.4 -0.7,0.7 -1.1,0.9 -0.4,0.2 -0.9,0.4 -1.5,0.5 l -1.4,0.2 c -0.6,0.1 -1.1,0.2 -1.5,0.4 -0.3,0.2 -0.6,0.4 -0.7,0.8 l -0.6,-0.2 0.9,-3.5 c 0.6,-0.2 1.4,-0.4 2.5,-0.6 l 1.8,-0.3 c 0.5,-0.1 0.9,-0.2 1.1,-0.3 0.2,-0.1 0.4,-0.2 0.5,-0.4 0.1,-0.1 0.2,-0.4 0.3,-0.7 l 0.1,-0.5 -2.9,-0.8 c -0.5,-0.1 -0.8,-0.2 -1,-0.2 -0.2,0 -0.4,0 -0.5,0.1 -0.1,0.1 -0.3,0.3 -0.5,0.6 z m 11.7,2.1 -5.1,-1.4 -0.2,0.9 c -0.1,0.5 -0.2,0.9 -0.1,1.3 0,0.4 0.2,0.7 0.3,0.9 0.2,0.2 0.4,0.4 0.7,0.6 0.3,0.2 0.6,0.3 1,0.4 0.8,0.2 1.5,0.2 2,-0.1 0.5,-0.3 0.9,-0.8 1.1,-1.6 0.2,-0.5 0.2,-0.9 0.3,-1 z"
   id="path73"
   inkscape:connector-curvature="0"
   style="fill:#b8282e" />
		<path
   class="st0"
   d="m 856.6,292.8 c -0.7,-0.2 -1.4,-0.2 -1.9,0 -0.5,0.2 -0.9,0.6 -1.2,1.2 -0.2,0.3 -0.2,0.7 -0.3,1 0,0.3 0.1,0.6 0.2,0.9 0.2,0.3 0.5,0.5 0.8,0.7 0.4,0.2 0.7,0.2 1,0.2 0.3,0 0.7,-0.1 1,-0.3 0.4,-0.2 0.8,-0.5 1.3,-0.9 0.4,-0.3 0.9,-0.6 1.3,-0.9 0.4,-0.2 0.8,-0.4 1.2,-0.5 0.4,-0.1 0.8,-0.2 1.2,-0.1 0.4,0 0.8,0.1 1.3,0.3 0.7,0.3 1.2,0.8 1.5,1.4 0.3,0.6 0.5,1.3 0.4,2 -0.1,0.8 -0.3,1.6 -0.7,2.5 -0.2,0.5 -0.5,1 -0.8,1.4 -0.3,0.4 -0.6,0.9 -1,1.4 l -2.5,-1.2 0.5,-1.2 c 0.5,0.1 0.9,0.1 1.3,0.1 0.3,0 0.6,-0.2 0.9,-0.4 0.2,-0.2 0.5,-0.5 0.6,-0.9 0.2,-0.3 0.2,-0.6 0.2,-1 0,-0.3 -0.1,-0.6 -0.2,-0.8 -0.2,-0.3 -0.4,-0.5 -0.7,-0.6 -0.3,-0.2 -0.6,-0.2 -0.9,-0.2 -0.3,0 -0.6,0.1 -1,0.3 -0.4,0.2 -0.8,0.5 -1.4,0.9 -0.7,0.5 -1.3,0.9 -1.8,1.1 -0.5,0.2 -1.1,0.4 -1.6,0.3 -0.5,0 -1,-0.1 -1.6,-0.4 -0.7,-0.3 -1.2,-0.8 -1.6,-1.3 -0.4,-0.6 -0.5,-1.2 -0.5,-2 0,-0.8 0.2,-1.5 0.6,-2.3 0.3,-0.6 0.6,-1.2 1,-1.8 0.4,-0.6 0.7,-1.1 1.1,-1.6 l 2.6,1.2 z"
   id="path75"
   inkscape:connector-curvature="0"
   style="fill:#b8282e" />
		<path
   class="st0"
   d="m 848.1,306.5 c -0.2,-0.1 -0.4,-0.2 -0.5,-0.3 -0.2,-0.1 -0.3,-0.2 -0.4,-0.2 -0.1,0 -0.2,0 -0.3,0 -0.1,0 -0.2,0.1 -0.3,0.1 -0.1,0.1 -0.2,0.2 -0.4,0.3 l -0.5,-0.3 2.7,-4.1 0.5,0.3 c -0.1,0.2 -0.1,0.4 -0.1,0.6 0,0.2 0,0.3 0.1,0.4 0.1,0.1 0.2,0.3 0.3,0.4 0.2,0.1 0.4,0.3 0.6,0.4 l 6.8,4.5 c 0.3,0.2 0.5,0.3 0.6,0.4 0.2,0.1 0.3,0.1 0.5,0.2 0.1,0 0.3,0 0.4,-0.1 0.1,-0.1 0.3,-0.2 0.5,-0.4 l 0.5,0.3 -2.7,4.1 -0.5,-0.3 c 0.1,-0.3 0.1,-0.5 0.1,-0.6 0,-0.1 0,-0.3 -0.1,-0.4 -0.1,-0.1 -0.2,-0.2 -0.3,-0.4 -0.1,-0.1 -0.4,-0.3 -0.6,-0.5 z"
   id="path77"
   inkscape:connector-curvature="0"
   style="fill:#b8282e" />
		<path
   class="st0"
   d="m 841,311.9 0.5,0.4 c -0.1,0.2 -0.2,0.4 -0.3,0.6 0,0.2 -0.1,0.3 0,0.5 0,0.1 0.1,0.3 0.3,0.4 0.1,0.2 0.3,0.3 0.5,0.5 l 7,6.3 0.5,-0.6 c 0.3,-0.3 0.4,-0.5 0.5,-0.7 0.1,-0.2 0.1,-0.4 0,-0.7 0,-0.2 -0.1,-0.5 -0.3,-0.8 -0.2,-0.3 -0.3,-0.6 -0.5,-0.8 l 0.9,-1 2.4,2.2 -7.5,8.2 -2.4,-2.2 0.9,-1 c 0.4,0.2 0.7,0.3 0.9,0.4 0.2,0.1 0.4,0.1 0.5,0.2 0.2,0 0.3,0 0.4,0 0.1,0 0.3,0 0.4,-0.1 0.1,0 0.2,-0.1 0.4,-0.2 0.1,-0.1 0.3,-0.2 0.5,-0.4 l 0.5,-0.5 -7,-6.3 c -0.2,-0.2 -0.4,-0.4 -0.6,-0.5 -0.1,-0.1 -0.3,-0.2 -0.4,-0.2 -0.1,0 -0.2,0 -0.3,0 -0.1,0 -0.2,0 -0.3,0.1 -0.1,0.1 -0.3,0.2 -0.4,0.3 l -0.5,-0.4 z"
   id="path79"
   inkscape:connector-curvature="0"
   style="fill:#b8282e" />
		<path
   class="st0"
   d="m 830.1,328.6 -1.6,-2.1 c -0.2,-0.3 -0.4,-0.5 -0.5,-0.6 -0.1,-0.1 -0.2,-0.2 -0.3,-0.3 -0.1,-0.1 -0.2,-0.1 -0.3,-0.1 -0.1,0 -0.2,0 -0.3,0 -0.1,0 -0.3,0.1 -0.5,0.2 l -0.4,-0.5 4.2,-3.1 0.4,0.5 c -0.2,0.2 -0.3,0.4 -0.4,0.5 -0.1,0.1 -0.1,0.3 -0.1,0.4 0,0.2 0.1,0.3 0.2,0.5 0.1,0.2 0.3,0.4 0.4,0.6 l 1.6,2.1 5.3,2.8 c 0.5,0.2 0.8,0.4 1,0.5 0.3,0.1 0.5,0.2 0.6,0.2 0.2,0 0.3,0 0.4,0 0.1,0 0.2,-0.1 0.3,-0.1 l 0.4,0.5 -4,3 -0.4,-0.5 c 0.3,-0.3 0.4,-0.7 0.2,-1 -0.1,-0.1 -0.2,-0.3 -0.4,-0.4 -0.2,-0.1 -0.5,-0.3 -0.9,-0.5 l -3.4,-1.9 0.7,3.8 c 0.1,0.4 0.2,0.7 0.2,0.9 0.1,0.2 0.2,0.4 0.3,0.6 0.1,0.2 0.3,0.3 0.5,0.3 0.2,0 0.4,0 0.6,-0.2 l 0.4,0.5 -3,2.3 -0.4,-0.5 c 0.1,-0.1 0.2,-0.3 0.2,-0.4 0,-0.1 0.1,-0.3 0.1,-0.5 0,-0.2 0,-0.5 0,-0.8 0,-0.3 -0.1,-0.8 -0.2,-1.3 z"
   id="path81"
   inkscape:connector-curvature="0"
   style="fill:#b8282e" />
	</g>
</g>
</svg>